<?xml version="1.0" standalone="no"?>
<!DOCTYPE svg PUBLIC "-//W3C//DTD SVG 20010904//EN"
 "http://www.w3.org/TR/2001/REC-SVG-20010904/DTD/svg10.dtd">
<svg version="1.0" xmlns="http://www.w3.org/2000/svg"
 width="512.000000pt" height="512.000000pt" viewBox="0 0 512.000000 512.000000"
 preserveAspectRatio="xMidYMid meet">

<g transform="translate(0.000000,512.000000) scale(0.100000,-0.100000)"
fill="#000000" stroke="none">
<path d="M2778 4478 c-9 -7 -22 -26 -28 -41 -7 -19 -10 -440 -10 -1298 l0
-1269 -318 0 -317 0 -85 171 c-47 93 -95 180 -108 192 -23 22 -29 22 -324 22
l-300 0 -24 -28 c-29 -34 -30 -56 -3 -90 l20 -27 267 -2 267 -3 57 -110 c32
-60 57 -113 58 -117 0 -5 -284 -8 -630 -8 l-630 0 60 120 60 120 130 0 c117 0
132 2 150 20 25 25 26 74 1 99 -28 28 -71 33 -226 29 -132 -3 -138 -4 -157
-28 -11 -14 -58 -100 -104 -192 l-83 -166 -174 -4 c-173 -3 -174 -3 -223 -33
-37 -23 -56 -44 -76 -84 -27 -53 -28 -59 -28 -228 0 -189 7 -223 58 -276 40
-43 80 -60 152 -66 l65 -6 6 -40 c22 -125 93 -250 195 -344 277 -254 721 -198
929 117 l27 42 32 -47 c44 -68 124 -142 197 -186 370 -218 850 3 925 426 l6
37 461 -2 460 -3 13 -65 c23 -110 76 -204 168 -295 93 -92 167 -136 282 -165
181 -47 369 -9 525 106 49 36 127 120 148 162 11 22 15 22 188 22 161 0 178 2
210 21 66 41 73 70 73 319 0 238 -4 264 -54 309 l-26 24 0 542 c0 316 -4 564
-10 594 -15 81 -55 149 -130 226 l-69 70 -51 525 c-34 343 -56 532 -65 546
-31 48 -358 234 -412 234 -57 0 -94 -50 -73 -100 8 -19 37 -39 108 -74 77 -38
239 -131 243 -139 0 -1 24 -240 53 -530 l53 -528 80 -82 c112 -113 116 -124
121 -287 l4 -135 -55 -23 c-113 -47 -187 -141 -206 -262 -6 -36 -11 -177 -11
-313 l0 -249 -74 69 c-123 115 -256 167 -426 165 -221 -2 -430 -125 -530 -314
-36 -68 -70 -161 -70 -195 l0 -23 -315 0 -315 0 0 1505 0 1505 418 0 c407 0
510 -6 669 -39 50 -10 81 2 103 42 13 24 13 30 0 55 -21 36 -46 47 -160 68
-81 15 -168 18 -610 21 -413 3 -518 2 -532 -9z m2112 -2508 l0 -341 -57 3 -58
3 0 275 c0 265 1 277 22 316 20 38 66 83 86 84 4 0 7 -153 7 -340z m-4465
-317 c-67 -82 -120 -184 -137 -264 l-12 -59 -45 0 c-77 0 -81 9 -81 191 l0
158 26 20 c24 19 40 21 166 21 l138 0 -55 -67z m590 45 c164 -41 304 -198 335
-377 42 -231 -112 -465 -345 -526 -159 -41 -327 6 -446 124 -183 183 -184 472
-2 655 120 121 289 167 458 124z m514 -25 c-25 -27 -55 -65 -68 -85 -12 -21
-24 -38 -26 -38 -2 0 -17 19 -33 43 -17 23 -46 59 -66 79 -20 20 -36 39 -36
43 0 3 61 5 136 5 l137 0 -44 -47z m600 15 c143 -48 254 -165 296 -312 13 -43
16 -85 13 -156 -3 -88 -7 -104 -41 -173 -142 -287 -504 -357 -735 -142 -172
160 -202 403 -74 601 114 175 339 251 541 182z m611 -163 l0 -195 -74 0 c-81
0 -77 -3 -91 70 -12 63 -83 196 -135 253 -27 30 -50 58 -50 61 0 3 79 6 175 6
l175 0 0 -195z m1538 164 c324 -111 422 -530 180 -770 -296 -295 -798 -85
-798 334 0 312 321 538 618 436z m692 -404 l0 -195 -120 0 c-66 0 -120 3 -120
8 0 4 5 38 10 76 11 76 0 195 -25 266 l-14 40 134 0 135 0 0 -195z"/>
<path d="M814 1571 c-102 -25 -197 -109 -234 -209 -44 -116 -13 -260 75 -348
68 -68 124 -89 235 -89 83 0 101 4 145 27 185 98 240 324 120 490 -77 105
-217 158 -341 129z m175 -174 c146 -97 78 -327 -97 -327 -106 0 -182 76 -182
181 0 43 26 104 57 131 59 53 154 60 222 15z"/>
<path d="M1890 1567 c-96 -27 -191 -114 -223 -204 -20 -56 -24 -158 -8 -211
28 -95 106 -177 200 -213 74 -28 195 -23 258 9 208 107 254 371 93 532 -80 80
-216 117 -320 87z m142 -147 c73 -21 137 -123 123 -198 -17 -91 -75 -144 -164
-150 -117 -8 -195 66 -193 185 2 71 41 126 112 157 42 18 72 19 122 6z"/>
<path d="M4047 1570 c-86 -22 -172 -92 -215 -175 -37 -72 -42 -188 -12 -268
30 -79 108 -157 187 -187 80 -30 196 -25 268 12 62 32 129 103 158 166 32 72
30 189 -4 262 -37 79 -81 125 -154 161 -70 34 -160 46 -228 29z m178 -170 c92
-57 109 -186 37 -272 -75 -89 -228 -74 -288 28 -26 45 -32 112 -13 161 37 99
170 141 264 83z"/>
<path d="M3180 3873 c-56 -20 -98 -99 -82 -155 5 -18 73 -186 151 -373 98
-237 150 -348 169 -368 61 -61 163 -42 202 37 19 40 20 60 20 397 0 395 -1
401 -69 446 -32 22 -43 23 -205 22 -94 0 -178 -3 -186 -6z m310 -425 c0 -155
-2 -279 -4 -277 -2 2 -56 129 -119 282 l-115 277 119 0 119 0 0 -282z"/>
<path d="M3784 3864 c-17 -8 -41 -32 -52 -53 -21 -38 -22 -48 -22 -403 0 -407
1 -412 71 -450 31 -17 58 -18 351 -16 l316 3 27 25 c57 52 57 52 19 446 -39
392 -44 413 -104 446 -31 16 -61 18 -305 18 -222 0 -276 -3 -301 -16z m530
-166 c8 -49 56 -551 56 -582 l0 -26 -255 0 -255 0 0 320 0 320 225 0 224 0 5
-32z"/>
<path d="M3761 2774 c-24 -30 -26 -43 -10 -78 18 -40 55 -48 194 -44 119 3
128 4 146 27 26 32 24 73 -4 99 -22 20 -33 22 -164 22 -141 0 -142 0 -162 -26z"/>
</g>
</svg>
