<?xml version="1.0" standalone="no"?>
<!DOCTYPE svg PUBLIC "-//W3C//DTD SVG 20010904//EN"
 "http://www.w3.org/TR/2001/REC-SVG-20010904/DTD/svg10.dtd">
<svg version="1.0" xmlns="http://www.w3.org/2000/svg"
 width="512.000000pt" height="512.000000pt" viewBox="0 0 512.000000 512.000000"
 preserveAspectRatio="xMidYMid meet">

<g transform="translate(0.000000,512.000000) scale(0.100000,-0.100000)"
fill="#000000" stroke="none">
<path d="M560 2840 l0 -1080 120 0 120 0 0 -320 0 -320 120 0 120 0 0 -40 c0
-207 152 -390 358 -430 166 -33 356 46 442 183 19 31 37 56 40 57 3 0 14 -17
25 -37 53 -99 179 -183 305 -205 190 -33 391 74 466 247 l28 65 648 0 648 0 0
-80 0 -80 -80 0 -80 0 0 -80 0 -80 240 0 240 0 0 80 0 80 -80 0 -80 0 0 80 0
80 80 0 80 0 0 160 0 160 120 0 120 0 0 240 0 240 -120 0 -120 0 0 1080 0
1080 -1880 0 -1880 0 0 -1080z m3600 0 l0 -920 -1720 0 -1720 0 0 920 0 920
1720 0 1720 0 0 -920z m0 -1240 l0 -160 -814 0 -813 0 -44 24 c-57 32 -149 56
-214 56 -141 0 -307 -96 -370 -213 -11 -20 -22 -37 -25 -37 -3 0 -14 17 -25
37 -47 87 -158 169 -270 199 -168 45 -361 -27 -462 -173 l-36 -53 -64 0 -63 0
0 240 0 240 1600 0 1600 0 0 -160z m240 -80 l0 -80 -40 0 -40 0 0 80 0 80 40
0 40 0 0 -80z m-2830 -176 c75 -22 149 -98 174 -178 88 -280 -253 -487 -461
-280 -111 111 -111 277 2 389 78 79 174 102 285 69z m800 0 c75 -22 149 -98
174 -178 88 -280 -253 -487 -461 -280 -111 111 -111 277 2 389 78 79 174 102
285 69z m1790 -144 l0 -80 -720 0 -720 0 -5 28 c-4 15 -14 51 -24 80 l-19 52
744 0 744 0 0 -80z"/>
<path d="M960 2840 l0 -680 80 0 80 0 0 680 0 680 -80 0 -80 0 0 -680z"/>
<path d="M1360 2840 l0 -680 80 0 80 0 0 680 0 680 -80 0 -80 0 0 -680z"/>
<path d="M1760 2840 l0 -680 80 0 80 0 0 680 0 680 -80 0 -80 0 0 -680z"/>
<path d="M2160 2840 l0 -680 80 0 80 0 0 680 0 680 -80 0 -80 0 0 -680z"/>
<path d="M2560 2840 l0 -680 80 0 80 0 0 680 0 680 -80 0 -80 0 0 -680z"/>
<path d="M2960 2840 l0 -680 80 0 80 0 0 680 0 680 -80 0 -80 0 0 -680z"/>
<path d="M3360 2840 l0 -680 80 0 80 0 0 680 0 680 -80 0 -80 0 0 -680z"/>
<path d="M3760 2840 l0 -680 80 0 80 0 0 680 0 680 -80 0 -80 0 0 -680z"/>
<path d="M1385 1281 c-171 -79 -166 -333 7 -405 77 -33 182 -14 242 42 88 82
88 242 0 324 -62 58 -171 75 -249 39z m137 -158 c38 -34 11 -103 -40 -103 -54
0 -81 62 -45 102 20 22 61 23 85 1z"/>
<path d="M2185 1281 c-171 -79 -166 -333 7 -405 77 -33 182 -14 242 42 88 82
88 242 0 324 -62 58 -171 75 -249 39z m137 -158 c38 -34 11 -103 -40 -103 -54
0 -81 62 -45 102 20 22 61 23 85 1z"/>
</g>
</svg>
