<?xml version="1.0" standalone="no"?>
<!DOCTYPE svg PUBLIC "-//W3C//DTD SVG 20010904//EN"
 "http://www.w3.org/TR/2001/REC-SVG-20010904/DTD/svg10.dtd">
<svg version="1.0" xmlns="http://www.w3.org/2000/svg"
 width="512.000000pt" height="512.000000pt" viewBox="0 0 512.000000 512.000000"
 preserveAspectRatio="xMidYMid meet">

<g transform="translate(0.000000,512.000000) scale(0.100000,-0.100000)"
fill="#000000" stroke="none">
<path d="M3304 5111 c-99 -26 -206 -117 -239 -206 l-18 -45 -695 0 -695 0 -44
41 c-72 66 -142 93 -243 94 -73 0 -94 -4 -147 -29 -222 -102 -278 -387 -112
-567 l39 -42 0 -507 c0 -498 0 -508 21 -534 26 -33 79 -36 109 -6 19 19 20 33
20 500 l0 480 70 0 70 0 0 -1047 0 -1048 -70 0 -70 0 0 446 c0 411 -1 449 -18
468 -26 33 -79 31 -109 -3 l-23 -27 0 -462 0 -462 -63 -29 c-92 -44 -212 -167
-264 -271 -21 -44 -45 -108 -52 -141 l-13 -62 -52 -6 c-184 -23 -375 -131
-514 -290 -60 -69 -142 -229 -169 -326 -26 -100 -24 -311 5 -412 30 -106 63
-176 122 -262 111 -160 262 -267 463 -328 68 -21 94 -22 522 -26 446 -3 450
-3 473 18 30 28 30 82 0 110 -21 19 -33 20 -430 20 -464 0 -509 5 -643 70
-100 49 -180 113 -241 193 -298 393 -105 945 376 1074 61 17 181 18 1890 18
1709 0 1829 -1 1890 -18 355 -95 576 -440 506 -787 -44 -215 -175 -384 -371
-480 -151 -73 -87 -70 -1493 -70 -1252 0 -1258 0 -1280 -20 -30 -28 -30 -82 0
-110 22 -20 28 -20 1282 -20 827 0 1283 4 1326 11 168 26 334 112 456 233 328
329 323 854 -12 1177 -139 133 -294 207 -479 227 l-60 7 -5 538 c-5 519 -6
539 -24 553 -17 12 -158 14 -913 14 -880 0 -893 0 -913 -20 -19 -19 -20 -33
-20 -550 l0 -530 -234 0 -233 0 -11 54 c-34 171 -186 360 -337 423 l-45 18 0
1106 0 1105 28 27 28 27 643 0 c353 0 641 -3 639 -7 -64 -126 -82 -200 -76
-321 l4 -91 -144 -168 c-79 -92 -153 -186 -163 -208 -27 -58 -25 -157 4 -212
36 -69 386 -472 429 -494 45 -23 137 -25 177 -5 71 37 118 130 105 204 -10 55
-16 64 -167 240 l-139 162 35 43 c19 23 49 58 65 77 l29 35 49 -27 c142 -77
337 -78 492 -2 l56 27 29 -34 c16 -19 45 -53 64 -76 l35 -42 -132 -153 c-150
-173 -166 -196 -175 -249 -13 -75 36 -168 106 -205 44 -22 137 -18 181 9 50
30 394 429 424 492 30 63 32 152 5 210 -10 22 -83 115 -163 207 l-144 168 4
91 c8 157 -35 282 -133 388 l-55 59 0 150 c0 128 -3 160 -21 207 -27 73 -104
156 -176 190 -60 29 -171 41 -229 26z m154 -156 c90 -38 122 -98 122 -230 0
-87 -2 -96 -17 -91 -98 29 -219 34 -306 11 -32 -8 -60 -15 -62 -15 -3 0 -5 43
-5 95 0 75 4 104 19 133 49 95 154 136 249 97z m-1992 -132 c23 -11 53 -40 72
-69 32 -46 34 -53 30 -121 -3 -62 -7 -77 -34 -110 -45 -55 -98 -83 -162 -83
-69 0 -109 18 -154 68 -76 84 -73 197 7 278 24 24 58 48 77 53 47 14 119 8
164 -16z m1572 -180 l-3 -68 -657 -3 -657 -2 0 70 0 70 660 0 660 0 -3 -67z
m514 -171 c79 -38 149 -110 186 -190 24 -50 27 -69 27 -157 0 -88 -3 -107 -27
-157 -37 -80 -107 -152 -187 -191 -61 -30 -73 -32 -166 -32 -88 0 -107 3 -157
27 -80 37 -152 107 -191 187 -30 61 -32 73 -32 166 0 87 3 107 27 157 47 100
137 180 241 214 26 9 74 13 128 11 74 -3 96 -8 151 -35z m-603 -661 c12 -16
21 -32 21 -36 0 -3 -36 -48 -79 -99 -81 -96 -98 -133 -86 -186 4 -18 62 -94
147 -192 173 -201 173 -201 158 -227 -25 -47 -53 -28 -184 122 -236 270 -246
284 -246 325 0 20 8 49 18 63 26 39 216 258 224 259 4 0 16 -13 27 -29z m1007
-91 c128 -147 134 -157 134 -202 0 -35 -16 -56 -180 -247 -99 -116 -188 -215
-199 -220 -15 -8 -24 -6 -42 8 -32 26 -26 37 139 227 76 89 144 176 151 193
23 54 7 93 -79 195 -44 51 -80 97 -80 101 0 12 42 66 49 63 4 -2 52 -55 107
-118z m-896 -1319 c0 -115 4 -221 10 -235 5 -15 22 -32 36 -38 23 -11 43 -7
154 32 l128 44 115 -42 c204 -74 207 -71 207 238 l0 210 230 0 230 0 0 -475 0
-475 -785 0 -785 0 0 475 0 475 230 0 230 0 0 -209z m500 59 c0 -102 -4 -150
-11 -150 -6 0 -45 12 -86 27 l-76 27 -81 -27 c-45 -15 -84 -27 -88 -27 -5 0
-8 68 -8 150 l0 150 175 0 175 0 0 -150z m-2120 -420 c89 -14 195 -68 259
-131 50 -50 112 -160 127 -221 l6 -28 -460 0 -461 0 15 53 c54 185 230 321
434 336 8 0 44 -4 80 -9z"/>
<path d="M3272 4354 c-91 -45 -142 -127 -142 -229 0 -146 109 -255 256 -255
143 0 253 110 254 256 0 189 -198 313 -368 228z m167 -138 c30 -16 51 -53 51
-91 0 -62 -47 -105 -114 -105 -49 0 -96 48 -96 98 1 89 81 138 159 98z"/>
<path d="M716 1375 c-192 -53 -350 -213 -401 -405 -19 -72 -19 -211 0 -284 48
-183 199 -342 380 -399 l70 -22 1795 0 1795 0 70 22 c181 57 332 216 380 399
19 73 19 212 0 284 -52 195 -210 353 -405 405 -43 12 -133 15 -417 15 l-362 0
-20 -26 c-12 -15 -21 -36 -21 -48 0 -27 33 -64 63 -71 12 -3 180 -6 372 -7
l350 -3 67 -32 c88 -41 160 -113 201 -201 30 -63 32 -74 32 -177 0 -105 -2
-113 -34 -177 -56 -113 -153 -191 -278 -223 -86 -23 -3500 -23 -3586 0 -125
32 -225 113 -280 224 -30 62 -32 72 -32 176 0 103 2 114 32 177 41 88 113 160
201 201 l67 32 1310 5 c1006 4 1315 8 1331 17 41 23 46 78 11 111 l-23 22
-1310 -1 c-1062 -1 -1318 -3 -1358 -14z"/>
<path d="M1675 1137 c-90 -30 -153 -83 -196 -167 -20 -37 -24 -60 -24 -130 0
-73 4 -92 27 -136 91 -173 309 -222 464 -105 108 81 148 240 92 363 -34 74
-79 122 -144 154 -64 31 -159 40 -219 21z m151 -158 c65 -31 90 -82 86 -171
-3 -41 -65 -105 -115 -119 -144 -39 -256 138 -160 252 51 60 117 73 189 38z"/>
<path d="M2462 1132 c-211 -76 -277 -335 -127 -500 116 -129 334 -129 450 0
57 63 79 120 79 208 0 88 -22 145 -79 208 -78 87 -215 122 -323 84z m168 -154
c33 -17 51 -35 68 -68 27 -55 28 -82 1 -136 -56 -118 -222 -118 -278 0 -27 54
-26 81 2 136 24 48 88 90 137 90 14 0 46 -10 70 -22z"/>
<path d="M3263 1132 c-127 -46 -206 -158 -206 -294 0 -170 135 -302 308 -302
117 0 218 62 273 168 23 44 27 63 27 136 0 73 -4 92 -27 135 -73 139 -236 207
-375 157z m185 -159 c50 -37 67 -71 67 -131 0 -71 -29 -116 -92 -144 -65 -29
-116 -17 -170 37 -43 43 -49 61 -44 130 9 105 154 171 239 108z"/>
<path d="M891 1130 c-59 -13 -121 -51 -169 -106 -55 -62 -76 -127 -70 -218 20
-312 436 -393 580 -113 29 58 36 168 14 235 -46 139 -209 231 -355 202z m144
-169 c126 -72 83 -268 -63 -288 -49 -7 -117 23 -146 64 -26 35 -33 121 -13
159 43 84 140 112 222 65z"/>
<path d="M4101 1130 c-59 -13 -121 -51 -169 -106 -55 -62 -76 -127 -70 -218
20 -312 436 -393 580 -113 29 58 36 168 14 235 -46 139 -209 231 -355 202z
m144 -169 c104 -59 98 -219 -10 -271 -52 -25 -88 -25 -139 0 -55 27 -79 63
-84 125 -7 80 28 133 105 161 43 15 83 10 128 -15z"/>
</g>
</svg>
