<?xml version="1.0" standalone="no"?>
<!DOCTYPE svg PUBLIC "-//W3C//DTD SVG 20010904//EN"
 "http://www.w3.org/TR/2001/REC-SVG-20010904/DTD/svg10.dtd">
<svg version="1.0" xmlns="http://www.w3.org/2000/svg"
 width="512.000000pt" height="512.000000pt" viewBox="0 0 512.000000 512.000000"
 preserveAspectRatio="xMidYMid meet">

<g transform="translate(0.000000,512.000000) scale(0.100000,-0.100000)"
fill="#000000" stroke="none">
<path d="M104 4351 c-23 -10 -54 -36 -70 -57 l-29 -37 -3 -1351 c-2 -1325 -2
-1352 18 -1416 23 -78 77 -151 143 -197 82 -56 125 -63 368 -63 l218 0 11 -54
c20 -95 74 -193 148 -265 80 -79 143 -115 248 -141 91 -24 154 -25 247 -5 195
41 367 209 410 401 l14 59 311 5 c344 6 342 5 344 70 1 25 -6 40 -26 57 -27
23 -27 23 -330 23 l-302 0 -13 52 c-30 120 -110 235 -213 306 -157 108 -391
121 -567 32 -125 -63 -229 -193 -265 -331 l-13 -54 -215 -3 -215 -2 -54 28
c-62 32 -107 95 -116 161 l-6 41 119 0 c94 0 127 4 159 19 152 70 154 290 3
365 -47 23 -63 26 -165 26 l-113 0 0 65 0 65 1610 0 1610 0 0 -385 0 -385
-339 0 c-327 0 -339 -1 -365 -21 -33 -26 -36 -79 -6 -109 19 -19 33 -20 548
-20 l528 0 12 -59 c31 -147 154 -301 294 -366 222 -102 466 -54 632 125 63 69
111 159 128 241 l12 59 56 0 c105 0 201 70 236 173 12 37 14 137 12 673 l-3
629 -23 47 c-34 68 -697 866 -748 900 -63 42 -149 60 -266 56 -91 -3 -102 -5
-119 -27 -25 -30 -24 -76 1 -101 17 -17 33 -20 118 -20 133 0 167 -11 225 -73
26 -28 47 -54 47 -59 0 -4 -96 -8 -214 -10 l-214 -3 -39 -31 c-76 -62 -78 -68
-81 -351 -4 -278 1 -313 50 -369 63 -72 36 -69 606 -72 l512 -3 0 -571 0 -570
-34 -34 c-29 -29 -41 -34 -79 -34 l-44 0 -13 48 c-49 180 -198 333 -379 386
-70 20 -209 21 -286 1 -147 -39 -273 -143 -344 -285 -22 -45 -41 -90 -41 -100
0 -47 -6 -50 -121 -50 l-109 0 0 1078 c0 825 3 1081 12 1090 8 8 48 12 113 12
111 0 126 7 140 62 6 22 1 33 -24 58 l-31 31 -104 -3 -104 -3 -4 265 c-3 301
-8 320 -81 368 l-41 27 -1263 3 -1264 2 -24 -24 c-32 -32 -32 -70 0 -101 l24
-25 1240 0 c1218 0 1240 0 1251 -19 7 -14 9 -323 8 -958 l-3 -938 -1608 -3
-1607 -2 2 957 3 958 238 5 c236 5 239 5 258 29 26 32 24 67 -6 96 l-24 25
-238 0 c-211 0 -243 -3 -279 -19z m4591 -1335 c115 -140 211 -259 213 -265 3
-8 -131 -11 -457 -11 -448 0 -462 1 -481 20 -19 19 -20 33 -20 246 0 136 4
233 10 245 10 18 24 19 268 19 l257 0 210 -254z m-4323 -1163 c20 -18 23 -45
8 -74 -10 -17 -22 -19 -120 -19 l-110 0 0 55 0 55 102 0 c80 0 105 -3 120 -17z
m1086 -208 c80 -36 161 -121 193 -202 17 -45 23 -79 23 -148 0 -126 -25 -188
-113 -276 -87 -87 -149 -112 -276 -113 -81 -1 -97 2 -157 31 -83 39 -154 108
-193 187 -37 76 -46 202 -21 288 33 115 126 210 241 248 90 30 219 24 303 -15z
m2983 -2 c85 -39 138 -88 177 -160 121 -227 2 -504 -244 -568 -228 -59 -445
85 -486 323 -30 178 80 362 255 424 83 29 213 21 298 -19z"/>
<path d="M1187 1576 c-168 -60 -246 -254 -167 -414 92 -183 316 -227 464 -91
136 124 136 328 0 448 -25 22 -66 47 -91 55 -56 19 -154 20 -206 2z m184 -159
c45 -30 74 -100 65 -153 -10 -50 -69 -110 -119 -119 -90 -17 -177 54 -177 145
0 119 134 193 231 127z"/>
<path d="M4190 1581 c-85 -28 -142 -75 -179 -149 -62 -123 -38 -265 61 -359
114 -110 310 -104 419 14 59 64 81 121 81 208 0 168 -112 284 -282 291 -41 2
-86 0 -100 -5z m142 -150 c66 -25 106 -106 87 -176 -41 -148 -247 -149 -288 0
-18 65 23 150 84 175 27 12 88 12 117 1z"/>
<path d="M3835 2445 c-14 -13 -25 -36 -25 -50 0 -14 11 -37 25 -50 23 -24 28
-25 173 -25 131 0 153 2 173 19 17 13 23 29 23 56 0 27 -6 43 -23 56 -20 17
-42 19 -173 19 -145 0 -150 -1 -173 -25z"/>
</g>
</svg>
