<svg width="1078" height="189" viewBox="0 0 1078 189" fill="none" xmlns="http://www.w3.org/2000/svg">
<path d="M150.287 28.5747C150.287 56.333 150.45 57.3127 154.206 61.7213C157.961 66.13 158.778 66.2933 176.249 66.7831L194.374 67.4363V61.5581V55.6798H181.964C166.126 55.6798 163.35 54.2103 163.35 45.8828V39.3514H173.963H184.577V33.6365V27.9216H173.963H163.35V19.7574V11.5932H176.086C188.332 11.5932 188.985 11.4299 190.782 7.51108C191.925 5.22511 192.741 2.61256 192.741 1.79614C192.741 0.816444 183.924 0.163307 171.514 0.163307H150.287V28.5747Z" fill="white"/>
<path d="M204.334 6.20472C206.457 9.63368 210.865 16.6549 214.294 21.7167C217.723 26.7785 220.499 31.8403 220.499 32.82C220.499 33.7997 216.254 40.9842 211.029 48.8218C205.804 56.6594 200.905 64.0072 200.252 64.9869C199.436 66.6198 201.232 67.1096 207.273 67.1096H215.437L222.295 55.5165L228.99 43.9233L235.848 55.5165L242.542 67.1096H250.38C254.625 67.1096 258.054 66.7831 258.054 66.2932C258.054 65.9666 253.156 58.2923 247.278 49.3117L236.664 32.82L246.461 17.6346C252.013 9.14383 256.422 1.79605 256.422 1.14292C256.422 0.489784 252.993 0.163216 248.747 0.489784C241.236 0.979637 240.91 1.14292 235.031 11.4298L228.99 21.88L222.785 10.94L216.58 0.163216H208.579H200.579L204.334 6.20472Z" fill="white"/>
<path d="M266.219 33.6364V67.1096H272.75H279.281V56.4962V45.8827H288.425C306.387 45.8827 314.551 37.3919 313.245 20.4104C311.938 5.06173 304.101 0.163216 280.914 0.163216H266.219V33.6364ZM297.243 14.8588C299.202 16.8182 300.508 20.2471 300.508 23.6761C300.508 30.8606 295.773 34.4528 286.303 34.4528H279.281V23.023V11.5931H286.629C291.854 11.5931 294.957 12.5728 297.243 14.8588Z" fill="white"/>
<path d="M331.531 1.95934C329.409 2.77576 326.959 4.4086 326.306 5.55158C325.653 6.69457 325 20.9003 325 37.2287V67.1096H331.531H338.063V54.8633V42.617H342.635C346.553 42.617 347.86 44.0866 353.248 54.8633L359.29 67.1096H366.637C370.719 67.1096 373.985 66.7831 373.985 66.2932C373.985 65.8033 371.046 59.7618 367.291 53.0672L360.596 40.9842L365.494 36.4122C374.638 27.7582 373.822 11.9197 363.698 4.4086C360.269 1.79605 356.351 0.979637 347.37 0.653069C340.839 0.3265 333.817 0.979637 331.531 1.95934ZM353.411 13.2259C358.8 15.1853 360.433 21.7167 357.004 27.1051C354.718 30.534 353.085 31.1872 346.227 31.1872H338.063V22.3698C338.063 16.8182 338.879 13.2259 340.185 12.7361C343.451 11.2665 349.003 11.4298 353.411 13.2259Z" fill="white"/>
<path d="M385.416 28.5747C385.416 56.333 385.579 57.3127 389.335 61.7213C393.09 66.13 393.907 66.2933 411.378 66.7831L429.503 67.4363V61.5581V55.6798H415.95C400.438 55.6798 398.479 54.5368 398.479 45.5562V39.5147L408.766 39.0249C418.889 38.535 418.889 38.535 419.379 33.1467L419.869 27.9216H409.255H398.479V19.7574V11.5932H414.154H429.666L429.176 6.20481L428.686 0.979729L407.133 0.489876L385.416 2.28882e-05V28.5747Z" fill="white"/>
<path d="M448.116 3.26561C440.769 7.67427 437.666 12.8994 437.666 20.737C437.666 32.3301 446.484 39.3514 461.342 39.3514C471.466 39.3514 476.854 47.3523 470.65 52.9039C464.771 58.2923 449.096 54.7 449.096 48.1687C449.096 46.5358 447.137 45.8827 442.565 45.8827C435.217 45.8827 434.89 46.8624 438.809 55.1899C442.075 62.0478 451.545 66.9463 461.669 67.1096C479.794 67.1096 490.08 55.3532 485.019 40.1678C482.569 32.6567 477.834 29.7176 465.425 27.9215C456.117 26.6152 449.096 23.023 449.096 19.4307C449.096 18.7776 450.566 16.6549 452.362 14.8588C457.75 9.4704 471.956 11.4298 471.956 17.4713C471.956 19.2674 473.425 19.7573 478.161 19.4307C483.549 18.9409 484.202 18.451 483.712 14.8588C481.916 2.44919 460.853 -4.40874 448.116 3.26561Z" fill="white"/>
<path d="M502.98 3.10235C495.469 7.02116 491.06 15.5119 492.53 23.023C494.162 33.1466 503.143 39.3514 516.042 39.3514C522.41 39.3514 529.105 43.5968 529.105 47.5156C529.105 51.2711 522.41 55.6798 516.696 55.6798C512.45 55.6798 509.674 54.3735 505.919 50.7813C500.367 45.0663 491.55 43.9233 491.55 48.6586C491.55 53.8836 498.081 62.3744 503.796 64.8237C515.389 69.5589 532.534 66.4565 538.086 58.2923C539.555 56.4962 540.535 51.4344 540.535 46.6992C540.372 34.1263 535.963 30.0442 519.961 27.7582C508.041 26.1254 504.613 24.3293 504.613 19.594C504.613 11.7564 520.124 8.81729 525.513 15.6752C529.268 20.4104 536.779 21.2269 538.412 16.9815C538.902 15.5119 538.412 12.4095 537.106 10.1236C531.881 0.816376 514.246 -2.77587 502.98 3.10235Z" fill="white"/>
<path d="M560.129 3.10244C550.659 7.83767 547.883 14.6956 547.883 33.6365C548.046 58.619 553.108 65.8035 571.232 66.7832C592.623 67.7629 599.317 59.9252 599.317 33.9631C599.317 15.0222 596.215 7.02125 587.234 2.77587C579.886 -0.653091 567.314 -0.489807 560.129 3.10244ZM581.356 14.5323C588.377 20.2472 588.867 44.9031 582.172 52.4142C579.07 55.8431 571.559 56.6596 566.66 54.047C558.17 49.4751 557.68 20.084 566.171 13.5526C570.089 10.7768 577.111 11.1033 581.356 14.5323Z" fill="white"/>
<path d="M18.8431 26.1255C28.8034 28.7381 43.6622 33.4733 52.153 36.739L67.3384 42.6172H101.465H135.591V32.0037V21.3903H68.3181L0.881836 21.5536L18.8431 26.1255Z" fill="#3FB4E7"/>
<path d="M105.383 61.3947C119.425 68.0894 135.591 73.9676 146.204 75.927C150.449 76.9067 150.613 76.7434 147.837 75.1106C142.775 72.1715 139.02 66.9464 137.223 60.0885L135.427 54.0469L113.057 54.2102L90.6875 54.3735L105.383 61.3947Z" fill="#3FB4E7"/>
<path d="M150.287 136.506V187.94H160.084H169.881V155.773C169.881 128.668 170.208 123.933 172.004 125.892C173.31 127.198 181.474 139.771 190.128 153.65C209.396 184.021 212.662 187.94 219.846 187.94C230.296 187.94 230.296 188.103 230.296 133.893V84.9078L220.989 85.3976L211.519 85.8875L210.702 118.054L209.886 150.221L189.639 117.565L169.391 85.0711H159.758H150.287V136.506Z" fill="white"/>
<path d="M251.523 126.708C251.523 187.123 251.033 186.47 293.65 187.613L318.469 188.266V179.286V170.305L297.079 169.652C272.26 168.999 271.117 168.346 271.117 154.14V145.649L287.119 145.159L302.957 144.67L303.447 136.016L303.937 127.525H287.608H271.117V115.278V103.032H294.793H318.469V94.0515V85.0709H284.996H251.523V126.708Z" fill="white"/>
<path d="M338.063 136.342V187.94H347.861H357.658V171.775V155.773L373.659 154.957C391.621 154.14 397.662 151.691 404.193 143.2C412.521 132.423 412.521 108.094 404.357 97.3174C397.172 87.8469 390.804 86.0508 363.046 85.3976L338.063 84.7445V136.342ZM383.62 105.482C389.171 108.257 390.314 110.87 390.314 120.177C390.314 124.096 389.824 128.505 389.335 129.974C387.539 134.546 379.538 137.322 368.271 137.322H357.658V120.177V103.032H368.271C374.476 103.032 381.007 104.012 383.62 105.482Z" fill="white"/>
<path d="M445.014 87.0305C436.85 89.9696 429.992 96.0111 426.073 104.175C422.481 111.36 422.154 114.136 422.154 135.689C422.154 162.958 424.44 171.448 433.584 179.612C440.442 185.491 448.28 187.94 461.342 187.94C479.63 187.94 489.917 182.552 496.775 169.326C499.877 163.611 500.531 159.202 501.02 139.771C501.51 119.361 501.347 115.932 498.081 107.604C494.163 96.9908 486.815 89.9696 477.018 86.8672C469.343 84.5812 451.709 84.7445 445.014 87.0305ZM473.915 106.135C479.467 110.543 481.753 119.524 481.753 136.506C481.753 161.488 476.528 169.979 460.853 169.979C454.974 169.979 452.688 168.999 448.28 164.59C441.912 158.222 439.952 147.609 441.422 128.505C442.402 114.789 444.851 108.584 450.566 105.482C456.934 102.053 469.18 102.379 473.915 106.135Z" fill="white"/>
<path d="M517.676 136.506V187.94H527.473H537.27L537.596 158.059L538.086 128.341L548.7 149.568C557.19 166.713 560.13 171.122 563.722 172.265C570.416 174.551 573.845 170.469 584.622 147.935L594.093 128.341L594.256 158.059L594.419 187.94H604.216H614.013V136.506V85.0711H604.543H595.236L581.357 112.993C573.682 128.341 566.988 141.241 566.334 141.567C565.845 141.894 558.987 129.321 551.476 113.646L537.433 85.0711H527.636H517.676V136.506Z" fill="white"/>
<path d="M631.974 121.32C631.974 141.73 632.79 160.508 633.77 163.937C636.056 172.591 643.567 180.429 653.527 184.674C670.345 191.859 694.348 186.47 703.655 173.408C709.207 165.733 710.513 154.793 710.023 119.361L709.533 85.8873L700.226 85.3975L690.756 84.9076V118.054C690.756 154.14 689.613 161.651 683.081 166.713C676.387 171.938 664.467 171.285 657.772 165.243L652.384 160.508L651.894 122.789L651.404 85.0709H641.607H631.974V121.32Z" fill="white"/>
<path d="M746.272 87.5203C733.373 93.3986 727.331 103.359 724.882 122.953C723.086 137.812 724.066 153.814 727.658 165.08C732.23 179.939 744.476 187.777 762.764 187.94C783.664 187.94 796.89 176.837 799.503 156.426L800.646 148.752H791.502H782.358L780.562 155.446C777.949 165.08 772.398 169.979 764.234 169.979C755.253 169.979 748.722 166.223 746.436 160.018C745.456 157.079 744.639 146.629 744.639 136.506C744.639 126.382 745.456 115.932 746.436 112.993C748.722 106.788 755.253 103.032 764.234 103.032C771.745 103.032 778.113 107.931 779.909 115.115C780.889 119.034 781.542 119.361 790.686 119.361H800.483L799.34 112.339C797.87 103.196 791.012 93.5618 783.011 89.3165C774.357 84.9078 754.437 83.9281 746.272 87.5203Z" fill="white"/>
<path d="M817.138 87.3569C816.648 88.6632 816.485 107.931 816.812 130.137C817.301 175.367 817.954 177.979 827.915 183.694C832.65 186.47 837.222 187.123 858.449 187.613L883.431 188.266V179.122V169.979H864.164C839.671 169.979 837.712 168.999 837.712 155.12V145.486H853.224H868.736V140.098C868.736 137.322 869.226 133.24 869.715 131.117C870.695 127.525 870.532 127.525 854.204 127.525H837.712V115.278V103.032H860.572H883.431V94.0515V85.0709H850.775C824.323 85.0709 817.791 85.5608 817.138 87.3569Z" fill="white"/>
<path d="M902.209 87.0305C901.719 88.1735 901.556 111.197 901.719 138.138L902.209 187.124H912.006H921.803L922.62 155.773L923.436 124.586L940.581 151.691C960.828 184.021 964.257 187.94 972.258 187.94C982.872 187.94 983.035 186.797 983.035 132.913V85.0711H973.238H963.441V118.054C963.441 138.955 962.951 150.548 961.808 149.405C960.992 148.589 951.521 133.893 940.908 116.911L921.314 85.8875L912.17 85.3976C905.802 85.0711 902.699 85.5609 902.209 87.0305Z" fill="white"/>
<path d="M1019.94 87.3568C1012.43 90.1327 1005.4 96.664 1001.81 104.012C997.73 112.503 995.934 132.423 997.73 148.915C999.689 168.182 1003.77 176.673 1013.73 182.715C1020.59 186.633 1022.88 187.123 1036.92 187.123C1048.84 187.123 1053.9 186.47 1058.63 184.021C1072.68 177 1078.56 160.835 1077.41 131.443C1076.76 115.768 1076.11 112.013 1072.19 104.175C1065.82 91.1124 1057.49 86.2138 1039.53 85.5607C1030.88 85.2341 1024.18 85.8873 1019.94 87.3568ZM1049.65 107.114C1055.21 111.849 1058.14 121.81 1058.14 136.505C1058.14 159.528 1051.61 169.978 1037.08 169.978C1021.9 169.978 1017.32 162.304 1017.32 136.505C1017.32 110.706 1021.9 103.032 1037.08 103.032C1042.96 103.032 1046.06 104.012 1049.65 107.114Z" fill="white"/>
</svg>
