<svg width="284" height="376" viewBox="0 0 284 376" fill="none" xmlns="http://www.w3.org/2000/svg">
<mask id="mask0_736_2883" style="mask-type:alpha" maskUnits="userSpaceOnUse" x="0" y="0" width="284" height="376">
<rect y="0.481964" width="284" height="375.255" fill="#D9D9D9"/>
</mask>
<g mask="url(#mask0_736_2883)">
<mask id="mask1_736_2883" style="mask-type:luminance" maskUnits="userSpaceOnUse" x="-177" y="-90" width="462" height="467">
<path d="M284.596 -89.9204H-176.541V376.197H284.596V-89.9204Z" fill="white"/>
</mask>
<g mask="url(#mask1_736_2883)">
<path d="M834.359 832.507L846.452 54.0871C846.798 31.8759 829.016 13.592 806.736 13.2486L52.8455 1.60717C30.5674 1.26375 12.226 18.9899 11.8802 41.2011L0.821887 752.981C0.697429 754.288 0.642104 755.585 0.653628 756.871L0.529175 758.208V41.6897C0.529175 19.1581 18.8499 0.894997 41.4506 0.894997H806.047C828.647 0.894997 846.968 19.1604 846.968 41.6897V831.164C846.968 853.695 828.647 871.958 806.047 871.958H797.457C817.861 870.244 834.034 853.35 834.359 832.507Z" fill="#ED6F25"/>
</g>
<mask id="mask2_736_2883" style="mask-type:luminance" maskUnits="userSpaceOnUse" x="-177" y="-90" width="462" height="467">
<path d="M284.596 -89.9204H-176.541V376.197H284.596V-89.9204Z" fill="white"/>
</mask>
<g mask="url(#mask2_736_2883)">
<path d="M36.4354 837.656L768.394 871.585C790.015 872.588 808.359 855.926 809.363 834.37L844.611 78.5962C845.615 57.0395 828.904 38.7534 807.282 37.7508L75.324 3.82438C53.7028 2.8218 35.359 19.4831 34.3542 41.0397L1.40033 747.654L1.11454 750.264L23.1598 40.9844C23.8397 19.0982 42.1881 1.9068 64.1412 2.5844L807.149 25.5354C829.102 26.213 846.346 44.5061 845.666 66.3901L821.821 833.575C821.173 854.437 804.468 871.034 783.891 871.954L776.447 871.839L37.8321 849.024C19.7165 848.463 4.80911 835.909 0.531433 819.239V809.252C4.99119 824.996 19.1426 836.856 36.4354 837.656Z" fill="#ED6F25"/>
</g>
<mask id="mask3_736_2883" style="mask-type:luminance" maskUnits="userSpaceOnUse" x="-177" y="-90" width="462" height="467">
<path d="M284.596 -89.9204H-176.541V376.197H284.596V-89.9204Z" fill="white"/>
</mask>
<g mask="url(#mask3_736_2883)">
<path d="M34.4602 815.162L743.845 870.036C764.791 871.657 783.089 856.042 784.714 835.16L841.723 102.695C843.347 81.8137 827.686 63.5736 806.741 61.9533L97.3555 7.07872C76.4096 5.45846 58.1119 21.0734 56.4871 41.9547L2.14946 740.079L1.94665 741.694C1.88442 742.201 1.83832 742.708 1.79683 743.213L45.4656 41.3647C46.7862 20.1446 65.1116 4.00875 86.3985 5.32479L807.146 49.8947C828.431 51.2108 844.617 69.4808 843.297 90.7009L796.994 834.898C795.673 856.118 777.348 872.254 756.061 870.937L35.313 826.367C18.495 825.328 4.8645 813.703 0.533813 798.403V786.725C4.44734 802.038 17.7782 813.871 34.4602 815.162Z" fill="#ED6F25"/>
</g>
<mask id="mask4_736_2883" style="mask-type:luminance" maskUnits="userSpaceOnUse" x="-177" y="-90" width="462" height="467">
<path d="M284.596 -89.9204H-176.541V376.197H284.596V-89.9204Z" fill="white"/>
</mask>
<g mask="url(#mask4_736_2883)">
<path d="M33.5521 793.017L719.786 867.476C740.038 869.672 758.243 855.087 760.447 834.897L837.802 126.34C840.006 106.15 825.375 87.9997 805.123 85.8032L118.889 11.3449C98.6369 9.14841 80.4314 23.7331 78.228 43.923L2.76246 735.162L2.45823 737.603L67.4071 42.8098C69.327 22.2719 87.5832 7.17321 108.183 9.08848L806.061 73.9267C826.661 75.8396 841.806 94.0406 839.886 114.578L772.526 835.16C770.606 855.698 752.35 870.797 731.748 868.881L33.8724 804.043C16.8493 802.462 3.55531 789.76 0.531433 773.809V771.783L0.619016 766.212L0.789568 760.752L0.824131 760.02C2.46283 777.008 15.8629 791.097 33.5521 793.017Z" fill="#ED6F25"/>
</g>
<mask id="mask5_736_2883" style="mask-type:luminance" maskUnits="userSpaceOnUse" x="-177" y="-90" width="462" height="467">
<path d="M284.596 -89.9204H-176.541V376.197H284.596V-89.9204Z" fill="white"/>
</mask>
<g mask="url(#mask5_736_2883)">
<path d="M3.152 732.056C1.01777 751.144 14.4892 768.577 33.6927 771.265L696.258 863.935C715.803 866.669 733.868 853.089 736.611 833.607L832.886 149.487C835.629 130.002 822.008 111.993 802.463 109.259L139.897 16.5883C120.353 13.8548 102.288 27.4346 99.545 46.9169L3.35942 730.394L88.943 45.2921C91.4206 25.4525 109.562 11.3725 129.463 13.8433L803.924 97.5807C823.824 100.051 837.947 118.137 835.47 137.977L748.476 834.379C745.998 854.218 727.857 868.298 707.958 865.828L33.4922 782.088C15.0954 779.804 1.64697 764.173 1.67693 746.149L1.76221 745.052L2.23008 740.049L2.7648 735.16L3.152 732.056Z" fill="#ED6F25"/>
</g>
<mask id="mask6_736_2883" style="mask-type:luminance" maskUnits="userSpaceOnUse" x="-177" y="-90" width="462" height="467">
<path d="M284.596 -89.9204H-176.541V376.197H284.596V-89.9204Z" fill="white"/>
</mask>
<g mask="url(#mask6_736_2883)">
<path d="M150.186 19.5684L800.744 120.824C819.929 123.811 833.052 141.736 830.058 160.861L724.863 832.581C721.867 851.706 703.887 864.791 684.702 861.806L34.1468 760.55C14.9617 757.563 1.8383 739.638 4.83221 720.513L110.027 48.793C113.021 29.6656 131.003 16.5814 150.186 19.5684ZM34.8543 749.948L673.3 859.441C692.124 862.67 710.006 850.074 713.245 831.309L826.997 172.094C830.236 153.331 817.601 135.501 798.78 132.275L160.334 22.7812C141.511 19.5522 123.628 32.1479 120.39 50.9134L6.63456 710.128C3.39864 728.891 16.0312 746.721 34.8543 749.948Z" fill="#ED6F25"/>
</g>
<mask id="mask7_736_2883" style="mask-type:luminance" maskUnits="userSpaceOnUse" x="-177" y="-90" width="462" height="467">
<path d="M284.596 -89.9204H-176.541V376.197H284.596V-89.9204Z" fill="white"/>
</mask>
<g mask="url(#mask7_736_2883)">
<path d="M170.323 26.2269L796.558 143.61C815.015 147.069 827.163 164.791 823.694 183.19L701.748 829.795C698.277 848.196 680.503 860.308 662.046 856.848L35.8108 739.466C17.3541 736.006 5.20558 718.285 8.67428 699.886L130.62 53.2804C134.091 34.879 151.866 22.7674 170.323 26.2269ZM37.0116 729.108L650.946 854.027C669.034 857.708 686.693 846.073 690.383 828.039L820.161 194.133C823.854 176.1 812.182 158.496 794.094 154.815L180.159 29.8961C162.072 26.2154 144.412 37.8499 140.722 55.8849L10.9445 689.793C7.25224 707.826 18.9237 725.43 37.0116 729.108Z" fill="#ED6F25"/>
</g>
<mask id="mask8_736_2883" style="mask-type:luminance" maskUnits="userSpaceOnUse" x="-177" y="-90" width="462" height="467">
<path d="M284.596 -89.9204H-176.541V376.197H284.596V-89.9204Z" fill="white"/>
</mask>
<g mask="url(#mask8_736_2883)">
<path d="M189.835 33.7912L791.388 165.899C809.108 169.79 820.307 187.265 816.405 204.928L679.159 826.049C675.255 843.713 657.727 854.88 640.008 850.987L38.4567 718.882C20.7375 714.991 9.53853 697.516 13.4405 679.852L150.686 58.7313C154.588 41.0651 172.118 29.9007 189.835 33.7912ZM40.1392 708.787L629.238 847.728C646.583 851.819 663.973 841.118 668.078 823.823L812.424 215.563C816.529 198.27 805.793 180.933 788.445 176.842L199.347 37.9006C182.001 33.8096 164.611 44.5107 160.507 61.8059L16.1625 670.066C12.0577 687.359 22.7933 704.696 40.1392 708.787Z" fill="#ED6F25"/>
</g>
<mask id="mask9_736_2883" style="mask-type:luminance" maskUnits="userSpaceOnUse" x="-177" y="-90" width="462" height="467">
<path d="M284.596 -89.9204H-176.541V376.197H284.596V-89.9204Z" fill="white"/>
</mask>
<g mask="url(#mask9_736_2883)">
<path d="M208.688 42.2267L785.267 187.652C802.239 191.932 812.516 209.118 808.222 226.04L657.142 821.371C652.848 838.29 635.608 848.537 618.636 844.257L42.0568 698.832C25.0843 694.552 14.8073 677.365 19.1011 660.444L170.182 65.1132C174.476 48.1915 191.716 37.9467 208.688 42.2267ZM44.2071 689.021L608.209 840.576C624.805 845.036 641.886 835.239 646.36 818.692L803.809 236.35C808.282 219.803 798.455 202.776 781.858 198.316L217.857 46.7602C201.26 42.3005 184.179 52.0981 179.705 68.6441L22.2564 650.987C17.7828 667.531 27.6104 684.561 44.2071 689.021Z" fill="#ED6F25"/>
</g>
<mask id="mask10_736_2883" style="mask-type:luminance" maskUnits="userSpaceOnUse" x="-177" y="-90" width="462" height="467">
<path d="M284.596 -89.9204H-176.541V376.197H284.596V-89.9204Z" fill="white"/>
</mask>
<g mask="url(#mask10_736_2883)">
<path d="M226.845 51.4966L778.217 208.83C794.435 213.458 803.82 230.318 799.179 246.488L635.728 815.793C631.086 831.963 614.174 841.319 597.955 836.691L46.5833 679.357C30.3646 674.729 20.9795 657.869 25.6213 641.699L189.072 72.3941C193.714 56.226 210.626 46.8686 226.845 51.4966ZM49.1831 669.845L587.885 832.602C603.726 837.389 620.459 828.465 625.26 812.672L794.345 256.45C799.146 240.657 790.197 223.975 774.356 219.19L235.654 56.4334C219.813 51.6464 203.081 60.5705 198.28 76.3629L29.1937 632.586C24.3929 648.378 33.3423 665.06 49.1831 669.845Z" fill="#ED6F25"/>
</g>
<mask id="mask11_736_2883" style="mask-type:luminance" maskUnits="userSpaceOnUse" x="-177" y="-90" width="462" height="467">
<path d="M284.596 -89.9204H-176.541V376.197H284.596V-89.9204Z" fill="white"/>
</mask>
<g mask="url(#mask11_736_2883)">
<path d="M244.276 61.5684L770.277 229.398C785.737 234.33 794.26 250.826 789.312 266.24L614.957 809.344C610.009 824.759 593.463 833.254 578.002 828.322L52.0019 660.492C36.5414 655.56 28.0183 639.065 32.9667 623.65L207.321 80.5461C212.27 65.1317 228.816 56.6362 244.276 61.5684ZM55.0373 651.301L568.308 823.848C583.388 828.919 599.739 820.841 604.823 805.804L784.08 275.844C789.164 260.81 781.063 244.511 765.98 239.44L252.709 66.8925C237.629 61.822 221.279 69.9002 216.195 84.9366L36.9378 614.897C31.8535 629.933 39.9571 646.23 55.0373 651.301Z" fill="#ED6F25"/>
</g>
<mask id="mask12_736_2883" style="mask-type:luminance" maskUnits="userSpaceOnUse" x="-177" y="-90" width="462" height="467">
<path d="M284.596 -89.9204H-176.541V376.197H284.596V-89.9204Z" fill="white"/>
</mask>
<g mask="url(#mask12_736_2883)">
<path d="M260.951 72.4032L761.475 249.318C776.174 254.516 783.868 270.608 778.654 285.264L594.862 802.061C589.651 816.717 573.508 824.385 558.806 819.188L58.2825 642.273C43.5826 637.078 35.8892 620.983 41.1026 606.327L224.895 89.5301C230.109 74.8763 246.249 67.2082 260.951 72.4032ZM61.735 633.418L549.501 814.348C563.821 819.661 579.749 812.394 585.078 798.118L773.042 294.492C778.371 280.216 771.081 264.336 756.761 259.026L268.995 78.096C254.675 72.7835 238.747 80.0505 233.418 94.3263L45.454 597.952C40.1254 612.228 47.4154 628.105 61.735 633.418Z" fill="#ED6F25"/>
</g>
<mask id="mask13_736_2883" style="mask-type:luminance" maskUnits="userSpaceOnUse" x="-177" y="-90" width="462" height="467">
<path d="M284.596 -89.9204H-176.541V376.197H284.596V-89.9204Z" fill="white"/>
</mask>
<g mask="url(#mask13_736_2883)">
<path d="M276.838 83.964L751.843 268.561C765.782 273.977 772.676 289.634 767.243 303.532L575.471 793.981C570.039 807.876 554.334 814.751 540.395 809.333L65.3904 624.736C51.4511 619.319 44.5574 603.663 49.9898 589.765L241.762 99.3162C247.196 85.4206 262.901 78.5477 276.838 83.964ZM69.2417 616.233L531.492 804.145C545.051 809.655 560.523 803.167 566.052 789.65L761.269 312.37C766.799 298.853 760.288 283.427 746.731 277.916L284.481 90.0048C270.922 84.4941 255.45 90.9821 249.921 104.5L54.7031 581.779C49.1739 595.294 55.6826 610.72 69.2417 616.233Z" fill="#ED6F25"/>
</g>
<mask id="mask14_736_2883" style="mask-type:luminance" maskUnits="userSpaceOnUse" x="-177" y="-90" width="462" height="467">
<path d="M284.596 -89.9204H-176.541V376.197H284.596V-89.9204Z" fill="white"/>
</mask>
<g mask="url(#mask14_736_2883)">
<path d="M291.914 96.2117L741.423 287.092C754.602 292.688 760.735 307.874 755.12 321.011L556.821 785.135C551.207 798.272 535.974 804.387 522.796 798.791L73.2889 607.911C60.1102 602.315 53.9771 587.128 59.5916 573.989L257.891 109.865C263.503 96.7279 278.735 90.6157 291.914 96.2117ZM77.5228 599.775L514.312 793.273C527.11 798.943 542.096 793.195 547.784 780.435L748.805 329.447C754.493 316.687 748.727 301.748 735.928 296.078L299.139 102.58C286.341 96.91 271.355 102.658 265.667 115.417L64.646 566.406C58.9578 579.165 64.7243 594.105 77.5228 599.775Z" fill="#ED6F25"/>
</g>
<mask id="mask15_736_2883" style="mask-type:luminance" maskUnits="userSpaceOnUse" x="-177" y="-90" width="462" height="467">
<path d="M284.596 -89.9204H-176.541V376.197H284.596V-89.9204Z" fill="white"/>
</mask>
<g mask="url(#mask15_736_2883)">
<path d="M306.15 109.102L730.249 304.875C742.67 310.61 748.077 325.296 742.324 337.677L538.943 775.561C533.193 787.942 518.46 793.333 506.04 787.599L81.9411 591.826C69.5206 586.091 64.1136 571.405 69.8663 559.024L273.247 121.14C278.998 108.759 293.73 103.37 306.15 109.102ZM86.5391 584.075L497.982 781.777C510.025 787.564 524.494 782.521 530.298 770.516L735.684 345.698C741.49 333.692 736.431 319.266 724.388 313.481L312.945 115.779C300.902 109.992 286.433 115.035 280.63 127.04L75.2434 551.858C69.4376 563.864 74.4966 578.287 86.5391 584.075Z" fill="#ED6F25"/>
</g>
<mask id="mask16_736_2883" style="mask-type:luminance" maskUnits="userSpaceOnUse" x="-177" y="-90" width="462" height="467">
<path d="M284.596 -89.9204H-176.541V376.197H284.596V-89.9204Z" fill="white"/>
</mask>
<g mask="url(#mask16_736_2883)">
<path d="M319.523 122.601L718.357 321.889C730.023 327.718 734.741 341.874 728.894 353.506L521.86 765.302C516.013 776.934 501.813 781.636 490.146 775.807L91.3123 576.519C79.6455 570.691 74.9276 556.535 80.7749 544.903L287.809 133.107C293.656 121.474 307.856 116.77 319.523 122.601ZM96.2538 569.16L482.526 769.695C493.82 775.559 507.741 771.184 513.623 759.925L721.95 361.098C727.832 349.839 723.443 335.96 712.15 330.097L325.877 129.564C314.584 123.701 300.663 128.075 294.781 139.334L86.4538 538.161C80.5743 549.42 84.9603 563.299 96.2538 569.16Z" fill="#ED6F25"/>
</g>
<mask id="mask17_736_2883" style="mask-type:luminance" maskUnits="userSpaceOnUse" x="-177" y="-90" width="462" height="467">
<path d="M284.596 -89.9204H-176.541V376.197H284.596V-89.9204Z" fill="white"/>
</mask>
<g mask="url(#mask17_736_2883)">
<path d="M332.01 136.663L705.784 338.103C716.704 343.99 720.772 357.586 714.867 368.474L505.597 754.394C499.695 765.281 486.055 769.336 475.135 763.449L101.361 562.009C90.4411 556.122 86.3732 542.526 92.278 531.638L301.548 145.718C307.45 134.831 321.088 130.777 332.01 136.663ZM106.628 555.062L467.967 757.072C478.516 762.97 491.865 759.225 497.782 748.708L707.642 375.625C713.558 365.106 709.801 351.798 699.252 345.9L337.913 143.888C327.361 137.99 314.014 141.736 308.098 152.252L98.2382 525.335C92.3218 535.856 96.0786 549.164 106.628 555.062Z" fill="#ED6F25"/>
</g>
<mask id="mask18_736_2883" style="mask-type:luminance" maskUnits="userSpaceOnUse" x="-177" y="-90" width="462" height="467">
<path d="M284.596 -89.9204H-176.541V376.197H284.596V-89.9204Z" fill="white"/>
</mask>
<g mask="url(#mask18_736_2883)">
<path d="M343.589 151.243L692.571 353.49C702.753 359.39 706.208 372.403 700.289 382.553L490.185 742.874C484.267 753.025 471.215 756.47 461.032 750.57L112.051 548.323C101.868 542.423 98.4134 529.41 104.332 519.259L314.436 158.939C320.355 148.788 333.409 145.343 343.589 151.243ZM117.621 541.8L454.325 743.951C464.141 749.844 476.891 746.689 482.803 736.903L692.808 389.258C698.72 379.472 695.555 366.761 685.737 360.868L349.033 158.717C339.217 152.824 326.467 155.979 320.555 165.765L110.55 513.41C104.641 523.194 107.805 535.905 117.621 541.8Z" fill="#ED6F25"/>
</g>
<mask id="mask19_736_2883" style="mask-type:luminance" maskUnits="userSpaceOnUse" x="-177" y="-90" width="462" height="467">
<path d="M284.596 -89.9204H-176.541V376.197H284.596V-89.9204Z" fill="white"/>
</mask>
<g mask="url(#mask19_736_2883)">
<path d="M354.247 166.302L678.763 368.029C688.217 373.906 691.103 386.31 685.207 395.735L475.644 730.793C469.749 740.217 457.307 743.093 447.853 737.216L123.337 535.49C113.883 529.613 110.997 517.208 116.893 507.784L326.456 172.726C332.351 163.302 344.793 160.425 354.247 166.302ZM129.194 529.398L441.616 730.371C450.711 736.22 462.839 733.614 468.707 724.547L677.488 401.976C683.356 392.911 680.74 380.818 671.648 374.968L359.225 173.996C350.13 168.146 338.003 170.753 332.135 179.82L123.353 502.391C117.483 511.458 120.099 523.549 129.194 529.398Z" fill="#ED6F25"/>
</g>
<mask id="mask20_736_2883" style="mask-type:luminance" maskUnits="userSpaceOnUse" x="-177" y="-90" width="462" height="467">
<path d="M284.596 -89.9204H-176.541V376.197H284.596V-89.9204Z" fill="white"/>
</mask>
<g mask="url(#mask20_736_2883)">
<path d="M363.961 181.795L664.395 381.694C673.132 387.506 675.488 399.282 669.657 407.991L461.993 718.183C456.162 726.893 444.352 729.242 435.615 723.429L135.182 523.53C126.444 517.718 124.089 505.942 129.92 497.233L337.583 187.041C343.414 178.329 355.224 175.98 363.961 181.795ZM141.301 517.884L429.855 716.385C438.238 722.152 449.725 720.052 455.51 711.695L661.721 413.769C667.506 405.412 665.4 393.96 657.015 388.193L368.46 189.691C360.076 183.925 348.591 186.025 342.806 194.382L136.594 492.307C130.809 500.664 132.916 512.115 141.301 517.884Z" fill="#ED6F25"/>
</g>
<mask id="mask21_736_2883" style="mask-type:luminance" maskUnits="userSpaceOnUse" x="-177" y="-90" width="462" height="467">
<path d="M284.596 -89.9204H-176.541V376.197H284.596V-89.9204Z" fill="white"/>
</mask>
<g mask="url(#mask21_736_2883)">
<path d="M372.72 197.675L649.513 394.462C657.547 400.174 659.414 411.296 653.687 419.308L449.255 705.09C443.525 713.099 432.367 714.961 424.333 709.25L147.54 512.463C139.505 506.751 137.638 495.629 143.366 487.619L347.798 201.838C353.53 193.826 364.685 191.964 372.72 197.675ZM153.901 507.27L419.057 702.031C426.746 707.678 437.569 706.042 443.234 698.378L645.558 424.611C651.223 416.948 649.582 406.157 641.893 400.508L376.737 205.747C369.048 200.1 358.225 201.736 352.56 209.4L150.236 483.167C144.571 490.832 146.212 501.623 153.901 507.27Z" fill="#ED6F25"/>
</g>
<mask id="mask22_736_2883" style="mask-type:luminance" maskUnits="userSpaceOnUse" x="-177" y="-90" width="462" height="467">
<path d="M284.596 -89.9204H-176.541V376.197H284.596V-89.9204Z" fill="white"/>
</mask>
<g mask="url(#mask22_736_2883)">
<path d="M380.51 213.899L634.161 406.32C641.506 411.893 642.93 422.348 637.341 429.673L437.447 691.561C431.858 698.883 421.371 700.303 414.024 694.73L160.373 502.308C153.028 496.735 151.603 486.28 157.192 478.956L357.086 217.068C362.675 209.745 373.162 208.326 380.51 213.899ZM166.951 497.578L409.234 687.354C416.243 692.844 426.389 691.63 431.895 684.644L629.039 434.494C634.545 427.508 633.329 417.393 626.32 411.903L384.036 222.127C377.027 216.637 366.882 217.851 361.375 224.837L164.231 474.987C158.725 481.973 159.942 492.088 166.951 497.578Z" fill="#ED6F25"/>
</g>
<mask id="mask23_736_2883" style="mask-type:luminance" maskUnits="userSpaceOnUse" x="-177" y="-90" width="462" height="467">
<path d="M284.596 -89.9204H-176.541V376.197H284.596V-89.9204Z" fill="white"/>
</mask>
<g mask="url(#mask23_736_2883)">
<path d="M387.316 230.422L618.377 417.25C625.052 422.648 626.075 432.418 620.661 439.071L426.58 677.635C421.166 684.289 411.366 685.308 404.692 679.912L173.63 493.084C166.955 487.686 165.932 477.916 171.346 471.262L365.427 232.699C370.841 226.043 380.641 225.024 387.316 230.422ZM180.406 488.823L400.398 672.403C406.743 677.7 416.195 676.863 421.507 670.536L612.214 443.404C617.527 437.078 616.688 427.656 610.343 422.359L390.351 238.779C384.004 233.482 374.554 234.319 369.242 240.646L178.535 467.778C173.222 474.106 174.061 483.528 180.406 488.823Z" fill="#ED6F25"/>
</g>
<mask id="mask24_736_2883" style="mask-type:luminance" maskUnits="userSpaceOnUse" x="-177" y="-90" width="462" height="467">
<path d="M284.596 -89.9204H-176.541V376.197H284.596V-89.9204Z" fill="white"/>
</mask>
<g mask="url(#mask24_736_2883)">
<path d="M393.135 247.196L602.216 427.234C608.239 432.42 608.905 441.491 603.703 447.495L416.679 663.361C411.477 669.365 402.378 670.029 396.355 664.844L187.274 484.805C181.252 479.62 180.586 470.548 185.788 464.544L372.812 248.678C378.014 242.674 387.113 242.01 393.135 247.196ZM194.223 481.021L392.557 657.224C398.261 662.29 407.003 661.79 412.088 656.104L595.129 451.335C600.211 445.649 599.709 436.933 594.004 431.864L395.671 255.661C389.966 250.595 381.224 251.096 376.14 256.781L193.098 461.55C188.016 467.238 188.521 475.955 194.223 481.021Z" fill="#ED6F25"/>
</g>
<mask id="mask25_736_2883" style="mask-type:luminance" maskUnits="userSpaceOnUse" x="-177" y="-90" width="462" height="467">
<path d="M284.596 -89.9204H-176.541V376.197H284.596V-89.9204Z" fill="white"/>
</mask>
<g mask="url(#mask25_736_2883)">
<path d="M397.955 264.175L585.712 436.257C591.103 441.196 591.453 449.558 586.5 454.931L407.743 648.779C402.788 654.152 394.403 654.504 389.012 649.565L201.255 477.483C195.867 472.544 195.514 464.182 200.467 458.81L379.226 264.961C384.179 259.589 392.566 259.236 397.955 264.175ZM208.356 474.185L385.714 641.863C390.796 646.666 398.821 646.454 403.641 641.388L577.822 458.277C582.642 453.211 582.427 445.211 577.348 440.406L399.99 272.728C394.908 267.925 386.883 268.137 382.063 273.203L207.882 456.314C203.062 461.379 203.277 469.382 208.356 474.185Z" fill="#ED6F25"/>
</g>
<mask id="mask26_736_2883" style="mask-type:luminance" maskUnits="userSpaceOnUse" x="-177" y="-90" width="462" height="467">
<path d="M284.596 -89.9204H-176.541V376.197H284.596V-89.9204Z" fill="white"/>
</mask>
<g mask="url(#mask26_736_2883)">
<path d="M401.771 281.316L568.914 444.31C573.692 448.97 573.778 456.609 569.103 461.372L399.787 633.936C395.113 638.7 387.45 638.783 382.672 634.125L215.529 471.131C210.751 466.471 210.666 458.833 215.34 454.069L384.656 281.505C389.33 276.741 396.994 276.656 401.771 281.316ZM222.761 468.324L379.881 626.363C384.361 630.871 391.66 630.903 396.182 626.434L560.35 464.221C564.872 459.752 564.904 452.478 560.424 447.97L403.304 289.931C398.824 285.423 391.524 285.391 387.002 289.86L222.835 452.073C218.311 456.539 218.278 463.816 222.761 468.324Z" fill="#ED6F25"/>
</g>
<mask id="mask27_736_2883" style="mask-type:luminance" maskUnits="userSpaceOnUse" x="-177" y="-90" width="462" height="467">
<path d="M284.596 -89.9204H-176.541V376.197H284.596V-89.9204Z" fill="white"/>
</mask>
<g mask="url(#mask27_736_2883)">
<path d="M404.581 298.569L551.87 451.384C556.061 455.73 555.922 462.642 551.562 466.819L392.822 618.882C388.461 623.06 381.528 622.922 377.338 618.573L230.049 465.758C225.859 461.412 225.997 454.5 230.358 450.323L389.097 298.261C393.458 294.084 400.391 294.223 404.581 298.569ZM237.389 463.447L375.052 610.773C378.956 614.952 385.523 615.185 389.715 611.292L542.753 469.17C546.945 465.277 547.178 458.731 543.274 454.553L405.611 307.226C401.704 303.048 395.141 302.815 390.948 306.708L237.91 448.83C233.716 452.723 233.483 459.266 237.389 463.447Z" fill="#ED6F25"/>
</g>
<mask id="mask28_736_2883" style="mask-type:luminance" maskUnits="userSpaceOnUse" x="-177" y="-90" width="462" height="467">
<path d="M284.596 -89.9204H-176.541V376.197H284.596V-89.9204Z" fill="white"/>
</mask>
<g mask="url(#mask28_736_2883)">
<path d="M406.383 315.89L534.626 457.471C538.254 461.474 537.938 467.651 533.921 471.267L386.855 603.663C382.838 607.279 376.642 606.964 373.017 602.96L244.774 461.379C241.146 457.376 241.462 451.199 245.479 447.583L392.545 315.187C396.56 311.571 402.756 311.887 406.383 315.89ZM252.196 459.561L371.231 595.14C374.584 598.961 380.411 599.346 384.244 596.002L525.075 473.111C528.908 469.767 529.295 463.959 525.939 460.137L406.904 324.558C403.551 320.737 397.724 320.352 393.891 323.696L253.06 446.587C249.229 449.932 248.842 455.74 252.196 459.561Z" fill="#ED6F25"/>
</g>
<mask id="mask29_736_2883" style="mask-type:luminance" maskUnits="userSpaceOnUse" x="-177" y="-90" width="462" height="467">
<path d="M284.596 -89.9204H-176.541V376.197H284.596V-89.9204Z" fill="white"/>
</mask>
<g mask="url(#mask29_736_2883)">
<path d="M407.176 333.231L517.225 462.562C520.313 466.192 519.866 471.631 516.225 474.71L381.886 588.32C378.244 591.399 372.789 590.952 369.7 587.322L259.651 457.991C256.563 454.361 257.01 448.922 260.652 445.843L394.991 332.233C398.632 329.154 404.088 329.601 407.176 333.231ZM267.135 456.671L368.421 579.509C371.251 582.941 376.336 583.436 379.779 580.615L507.372 476.054C510.815 473.233 511.311 468.165 508.481 464.731L407.195 341.892C404.364 338.461 399.28 337.965 395.837 340.786L268.244 445.347C264.8 448.171 264.305 453.239 267.135 456.671Z" fill="#ED6F25"/>
</g>
<mask id="mask30_736_2883" style="mask-type:luminance" maskUnits="userSpaceOnUse" x="-177" y="-90" width="462" height="467">
<path d="M284.596 -89.9204H-176.541V376.197H284.596V-89.9204Z" fill="white"/>
</mask>
<g mask="url(#mask30_736_2883)">
<path d="M406.962 350.545L499.713 466.653C502.292 469.879 501.758 474.579 498.519 477.149L377.919 572.901C374.683 575.471 369.968 574.938 367.391 571.712L274.64 455.604C272.063 452.377 272.595 447.677 275.833 445.108L396.436 349.358C399.672 346.785 404.385 347.318 406.962 350.545ZM282.16 454.783L366.612 563.931C368.944 566.945 373.289 567.505 376.313 565.18L489.681 477.999C492.704 475.674 493.265 471.343 490.932 468.328L406.48 359.181C404.148 356.166 399.803 355.606 396.779 357.931L283.412 445.114C280.388 447.438 279.825 451.768 282.16 454.783Z" fill="#ED6F25"/>
</g>
</g>
</svg>
